<?xml version="1.0" encoding="UTF-8"?>
<svg version="1.1" xmlns="http://www.w3.org/2000/svg" width="300" height="80">
<path d="M0 0 C0.79541199 -0.00525696 1.59082397 -0.01051392 2.41033936 -0.01593018 C5.04198796 -0.02914387 7.67303265 -0.02038744 10.3046875 -0.01025391 C12.13167436 -0.01227425 13.95866044 -0.01518536 15.78564453 -0.01895142 C19.61563796 -0.02337662 23.44542157 -0.01693743 27.27539062 -0.00292969 C32.18853455 0.01416234 37.10118686 0.0043222 42.01431274 -0.01364708 C45.78722854 -0.02447963 49.56002749 -0.02104101 53.33294678 -0.0132637 C55.14467425 -0.01126023 56.95641229 -0.01372612 58.76812744 -0.02070236 C61.2988298 -0.02830821 63.82873233 -0.01672527 66.359375 0 C67.4862674 -0.00910904 67.4862674 -0.00910904 68.63592529 -0.0184021 C71.46054973 0.01624069 73.66011993 0.0915588 76.14419556 1.50973511 C77.68990016 4.31374193 77.56138749 6.64095311 77.56787109 9.83154297 C77.57312805 10.4806514 77.57838501 11.12975983 77.58380127 11.79853821 C77.59700046 13.94324844 77.58826422 16.08721588 77.578125 18.23193359 C77.58014578 19.72261701 77.58305725 21.21329946 77.58682251 22.70397949 C77.59124572 25.82781387 77.58481515 28.95139086 77.57080078 32.07519531 C77.55370858 36.08036536 77.56354982 40.08493234 77.58151817 44.09008026 C77.59235626 47.16815743 77.58890963 50.24609151 77.5811348 53.32417297 C77.57913284 54.80097017 77.58159192 56.27778033 77.58857346 57.75456238 C77.59618873 59.81833329 77.58458444 61.8811262 77.56787109 63.94482422 C77.56548431 65.11936157 77.56309753 66.29389893 77.56063843 67.50402832 C77.1796875 70.38818359 77.1796875 70.38818359 76.14419556 72.26663208 C73.0343661 74.04205566 69.84376749 73.80453267 66.359375 73.77636719 C65.56396301 73.78162415 64.76855103 73.7868811 63.94903564 73.79229736 C61.31738704 73.80551106 58.68634235 73.79675463 56.0546875 73.78662109 C54.22770064 73.78864144 52.40071456 73.79155255 50.57373047 73.7953186 C46.74373704 73.79974381 42.91395343 73.79330462 39.08398438 73.77929688 C34.17084045 73.76220485 29.25818814 73.77204499 24.34506226 73.79001427 C20.57214646 73.80084682 16.79934751 73.7974082 13.02642822 73.78963089 C11.21470075 73.78762742 9.40296271 73.7900933 7.59124756 73.79706955 C5.0605452 73.8046754 2.53064267 73.79309246 0 73.77636719 C-0.7512616 73.78243988 -1.50252319 73.78851257 -2.27655029 73.79476929 C-5.10117473 73.7601265 -7.30074493 73.68480839 -9.78482056 72.26663208 C-11.33052516 69.46262525 -11.20201249 67.13541408 -11.20849609 63.94482422 C-11.21375305 63.29571579 -11.21901001 62.64660736 -11.22442627 61.97782898 C-11.23762546 59.83311875 -11.22888922 57.68915131 -11.21875 55.54443359 C-11.22077078 54.05375018 -11.22368225 52.56306773 -11.22744751 51.0723877 C-11.23187072 47.94855332 -11.22544015 44.82497633 -11.21142578 41.70117188 C-11.19433358 37.69600183 -11.20417482 33.69143485 -11.22214317 29.68628693 C-11.23298126 26.60820976 -11.22953463 23.53027568 -11.2217598 20.45219421 C-11.21975784 18.97539702 -11.22221692 17.49858686 -11.22919846 16.02180481 C-11.23681373 13.9580339 -11.22520944 11.89524099 -11.20849609 9.83154297 C-11.20610931 8.65700562 -11.20372253 7.48246826 -11.20126343 6.27233887 C-10.8203125 3.38818359 -10.8203125 3.38818359 -9.78482056 1.50973511 C-6.6749911 -0.26568847 -3.48439249 -0.02816548 0 0 Z " fill="#FEFDFD" transform="translate(16.8203125,3.61181640625)"/>
<path d="M0 0 C10.89 0 21.78 0 33 0 C32.67 1.32 32.34 2.64 32 4 C33.051875 2.9790625 33.051875 2.9790625 34.125 1.9375 C37 0 37 0 40.1875 0.0625 C43 1 43 1 45 4 C45.125 6.6875 45.125 6.6875 45 9 C45.99 9 46.98 9 48 9 C50.5120067 15.66492101 50.92579764 21.94783711 50 29 C47.6576471 34.10773944 43.62419039 37.87554703 39 41 C35.64909283 42.11696906 33.09654627 42.12597408 29.56640625 42.140625 C27.6318457 42.16962891 27.6318457 42.16962891 25.65820312 42.19921875 C22.96208658 42.23724215 20.26900204 42.25126627 17.57226562 42.25390625 C2.15851386 42.54401153 -8.35885128 48.1450782 -19 59 C-17.31726893 50.79668605 -10.79077486 44.99262563 -4.125 40.4375 C-0.33333333 38 -0.33333333 38 2 38 C2 37.34 2 36.68 2 36 C1.34 36 0.68 36 0 36 C0 24.12 0 12.24 0 0 Z " fill="#FCF8F8" transform="translate(34,11)"/>
<path d="M0 0 C1.28132812 0.00902344 2.56265625 0.01804687 3.8828125 0.02734375 C4.87023437 0.03894531 5.85765625 0.05054687 6.875 0.0625 C8.62065111 3.27889654 9.079437 5.38263404 8.875 9.0625 C9.535 9.0625 10.195 9.0625 10.875 9.0625 C10.66875 7.94875 10.4625 6.835 10.25 5.6875 C10.12625 4.49125 10.0025 3.295 9.875 2.0625 C11.875 0.0625 11.875 0.0625 14.2578125 -0.1328125 C15.16273438 -0.10960938 16.06765625 -0.08640625 17 -0.0625 C17.91007812 -0.04445313 18.82015625 -0.02640625 19.7578125 -0.0078125 C20.45648438 0.01539062 21.15515625 0.03859375 21.875 0.0625 C21.875 0.7225 21.875 1.3825 21.875 2.0625 C22.58011719 1.73507813 23.28523438 1.40765625 24.01171875 1.0703125 C28.64089946 -0.55905806 32.99471245 -0.05509729 37.875 0.0625 C38.37 8.9725 38.37 8.9725 38.875 18.0625 C39.865 18.0625 40.855 18.0625 41.875 18.0625 C41.92891993 16.27116022 41.96775571 14.47936101 42 12.6875 C42.02320313 11.68976562 42.04640625 10.69203125 42.0703125 9.6640625 C42.14716848 6.89987827 42.14716848 6.89987827 39.875 5.0625 C40.0625 3 40.0625 3 40.875 1.0625 C43.88990557 0.05753148 45.91681692 -0.04085303 49.0625 0 C51.4446875 0.0309375 51.4446875 0.0309375 53.875 0.0625 C54.37 9.4675 54.37 9.4675 54.875 19.0625 C55.535 19.3925 56.195 19.7225 56.875 20.0625 C56.625 21.9375 56.625 21.9375 55.875 24.0625 C52.90102316 25.97434226 50.61958497 26.29028191 47.125 26.1875 C46.32578125 26.16945313 45.5265625 26.15140625 44.703125 26.1328125 C44.09984375 26.10960938 43.4965625 26.08640625 42.875 26.0625 C42.38 25.0725 42.38 25.0725 41.875 24.0625 C40.885 24.7225 39.895 25.3825 38.875 26.0625 C31.85377869 26.73118774 31.85377869 26.73118774 28.66796875 24.5546875 C26.19941903 21.12345717 26.20434791 17.8953105 26.125 13.8125 C26.09535156 13.06742188 26.06570312 12.32234375 26.03515625 11.5546875 C25.9647657 9.72453328 25.91758168 7.89351231 25.875 6.0625 C24.09358253 5.19891377 24.09358253 5.19891377 21.875 5.0625 C16.47986659 8.59977619 15.07910222 15.92033996 13.05078125 21.70898438 C10.91520143 27.43931509 9.11498769 30.76725001 3.875 34.0625 C0.76400627 34.87296924 -1.98168629 34.70545053 -5.125 34.0625 C-7.75 32.375 -7.75 32.375 -9.125 30.0625 C-8.96349795 26.67095705 -8.54203243 25.47953243 -6.125 23.0625 C-3.5 23.4375 -3.5 23.4375 -1.125 24.0625 C-0.795 25.3825 -0.465 26.7025 -0.125 28.0625 C0.535 28.0625 1.195 28.0625 1.875 28.0625 C-0.33879401 20.68318663 -3.2373969 13.73315045 -7.125 7.0625 C-7.785 6.7325 -8.445 6.4025 -9.125 6.0625 C-9.125 4.4125 -9.125 2.7625 -9.125 1.0625 C-6.12186252 -0.43906874 -3.33432478 -0.03031204 0 0 Z " fill="#000000" transform="translate(170.125,29.9375)"/>
<path d="M0 0 C0.88494141 -0.020625 1.76988281 -0.04125 2.68164062 -0.0625 C7.5743558 -0.09186363 11.01526761 -0.02234983 14.9375 3.25 C17.23383824 6.69450737 17.47766485 9.18812283 17.9375 13.25 C18.948125 12.755 19.95875 12.26 21 11.75 C24.63506981 9.96955765 27.9376168 10.13475727 31.9375 10.25 C31.967229 11.09763916 31.967229 11.09763916 31.99755859 11.96240234 C32.09268236 14.51707997 32.20241058 17.07092541 32.3125 19.625 C32.3434375 20.51445313 32.374375 21.40390625 32.40625 22.3203125 C32.46425781 23.59648438 32.46425781 23.59648438 32.5234375 24.8984375 C32.5548584 25.68395996 32.5862793 26.46948242 32.61865234 27.27880859 C32.7774465 29.48002939 32.7774465 29.48002939 34.9375 31.25 C34.40178571 34.78571429 34.40178571 34.78571429 32.9375 36.25 C30.58436445 36.32271741 28.22916332 36.33370868 25.875 36.3125 C24.58464844 36.30347656 23.29429687 36.29445312 21.96484375 36.28515625 C20.96582031 36.27355469 19.96679688 36.26195312 18.9375 36.25 C17.98787332 32.19914494 18.10679469 30.91141062 19.9375 27.25 C20.4375 23.75 20.4375 23.75 19.9375 20.25 C18.08329161 17.80901182 18.08329161 17.80901182 15.9375 16.25 C15.73125 16.848125 15.525 17.44625 15.3125 18.0625 C13.31640963 21.23809831 11.45150008 21.97218179 7.9375 23.25 C4.91787088 23.48152132 1.95866482 23.43126989 -1.0625 23.25 C-0.7325 25.56 -0.4025 27.87 -0.0625 30.25 C0.9275 30.58 1.9175 30.91 2.9375 31.25 C2.9375 32.57 2.9375 33.89 2.9375 35.25 C-0.09673981 36.7671199 -3.23754794 36.43439257 -6.5625 36.4375 C-7.25214844 36.44974609 -7.94179687 36.46199219 -8.65234375 36.47460938 C-10.45727494 36.47988695 -12.26167842 36.37184458 -14.0625 36.25 C-14.7225 35.59 -15.3825 34.93 -16.0625 34.25 C-15.6875 32.125 -15.6875 32.125 -15.0625 30.25 C-14.4025 30.25 -13.7425 30.25 -13.0625 30.25 C-12.94648996 26.64610336 -12.87531592 23.04268533 -12.8125 19.4375 C-12.77898437 18.41333984 -12.74546875 17.38917969 -12.7109375 16.33398438 C-12.69804688 15.35107422 -12.68515625 14.36816406 -12.671875 13.35546875 C-12.65092773 12.44949951 -12.62998047 11.54353027 -12.60839844 10.61010742 C-12.85025612 8.07229312 -12.85025612 8.07229312 -15.08691406 6.4309082 C-15.73885742 6.0412085 -16.39080078 5.65150879 -17.0625 5.25 C-16.7325 3.93 -16.4025 2.61 -16.0625 1.25 C-10.69152501 0.15279918 -5.45818862 0.03194258 0 0 Z M-0.0625 6.25 C-1.29517348 7.25836062 -1.29517348 7.25836062 -1.16015625 9.31640625 C-1.14855469 10.14011719 -1.13695313 10.96382812 -1.125 11.8125 C-1.11597656 12.63878906 -1.10695313 13.46507812 -1.09765625 14.31640625 C-1.08605469 14.95449219 -1.07445313 15.59257813 -1.0625 16.25 C-0.0725 16.58 0.9175 16.91 1.9375 17.25 C4.10391665 15.58454661 4.10391665 15.58454661 5.9375 13.25 C5.77599795 9.85845705 5.35453243 8.66703243 2.9375 6.25 C1.9475 6.25 0.9575 6.25 -0.0625 6.25 Z " fill="#000000" transform="translate(126.0625,19.75)"/>
<path d="M0 0 C1.8871875 0.0309375 1.8871875 0.0309375 3.8125 0.0625 C4.1425 4.0225 4.4725 7.9825 4.8125 12.0625 C5.8025 11.0725 6.7925 10.0825 7.8125 9.0625 C13.38642317 8.35470023 13.38642317 8.35470023 15.8125 9.0625 C18.70581407 11.79762582 19.72002925 13.48355267 20.3515625 17.4375 C20.37992187 18.63375 20.40828125 19.83 20.4375 21.0625 C20.56353796 25.56108581 20.87625504 28.97315064 22.8125 33.0625 C20.8125 35.0625 20.8125 35.0625 17.7734375 35.2578125 C16.59007812 35.23460937 15.40671875 35.21140625 14.1875 35.1875 C12.40472656 35.16042969 12.40472656 35.16042969 10.5859375 35.1328125 C9.21308594 35.09800781 9.21308594 35.09800781 7.8125 35.0625 C6.6875 31.3125 6.6875 31.3125 7.8125 29.0625 C7.90749503 27.56493129 7.94237198 26.06307068 7.9375 24.5625 C7.94007813 23.7684375 7.94265625 22.974375 7.9453125 22.15625 C7.94527996 20.00331466 7.94527996 20.00331466 6.8125 18.0625 C6.1525 18.0625 5.4925 18.0625 4.8125 18.0625 C4.8125 18.88234375 4.8125 19.7021875 4.8125 20.546875 C4.8125 25.05208333 4.8125 29.55729167 4.8125 34.0625 C3.8125 35.0625 3.8125 35.0625 0.87109375 35.16015625 C-0.32386719 35.14855469 -1.51882813 35.13695312 -2.75 35.125 C-4.54630859 35.11146484 -4.54630859 35.11146484 -6.37890625 35.09765625 C-7.30574219 35.08605469 -8.23257813 35.07445312 -9.1875 35.0625 C-9.8475 33.7425 -10.5075 32.4225 -11.1875 31.0625 C-10.5275 30.4025 -9.8675 29.7425 -9.1875 29.0625 C-8.04426919 24.27387284 -8.06754274 19.57578731 -8.125 14.6875 C-8.12951172 13.95144531 -8.13402344 13.21539062 -8.13867188 12.45703125 C-8.15034858 10.65881842 -8.16827989 8.86064803 -8.1875 7.0625 C-8.8475 7.0625 -9.5075 7.0625 -10.1875 7.0625 C-10.5175 6.0725 -10.8475 5.0825 -11.1875 4.0625 C-7.47611183 1.11898524 -4.747758 -0.0778321 0 0 Z " fill="#000000" transform="translate(262.1875,20.9375)"/>
<path d="M0 0 C0.66 0 1.32 0 2 0 C4.86792447 6.14059635 4.86351346 12.35470075 4 19 C1.6611672 24.10788569 -2.37724238 27.87651512 -7 31 C-10.35090717 32.11696906 -12.90345373 32.12597408 -16.43359375 32.140625 C-18.3681543 32.16962891 -18.3681543 32.16962891 -20.34179688 32.19921875 C-23.03791342 32.23724215 -25.73099796 32.25126627 -28.42773438 32.25390625 C-43.84148614 32.54401153 -54.35885128 38.1450782 -65 49 C-63.38739801 41.13856531 -57.17513555 35.31907027 -50.875 30.75 C-41.22456263 24.83150349 -31.26721046 22.46893928 -20.12915039 21.71972656 C-15.66343319 21.38404049 -12.57834544 20.76102661 -9 18 C-7.67770811 15.35541621 -7.90322806 13.32238699 -7.9375 10.375 C-7.94652344 9.37210938 -7.95554688 8.36921875 -7.96484375 7.3359375 C-7.97644531 6.56507812 -7.98804688 5.79421875 -8 5 C-7.05125 4.54625 -6.1025 4.0925 -5.125 3.625 C-1.99686321 2.19761746 -1.99686321 2.19761746 0 0 Z " fill="#FD0B0B" transform="translate(80,21)"/>
<path d="M0 0 C10.89 0 21.78 0 33 0 C32.67 0.99 32.34 1.98 32 3 C32 5.64 32 8.28 32 11 C25.4 11 18.8 11 12 11 C12 17.93 12 24.86 12 32 C2.25 36 2.25 36 0 36 C0 24.12 0 12.24 0 0 Z " fill="#0E0E0E" transform="translate(34,11)"/>
<path d="M0 0 C1.22847656 -0.0103125 2.45695313 -0.020625 3.72265625 -0.03125 C6.9375 0.5 6.9375 0.5 8.890625 2.359375 C10.24355051 5.12580477 9.82024242 6.6110248 8.9375 9.5 C5.11652761 8.96930939 2.87578597 8.00298434 -0.0625 5.5 C-0.0625 6.49 -0.0625 7.48 -0.0625 8.5 C0.659375 8.726875 1.38125 8.95375 2.125 9.1875 C5.63027149 10.82329336 7.55873641 12.44158967 9.9375 15.5 C10.5625 19.0625 10.5625 19.0625 9.9375 22.5 C7.76164057 25.32861726 6.14156258 26.34172888 2.58984375 26.80859375 C-2.27846608 26.93342221 -6.58070618 26.56852022 -11.0625 24.5 C-12.41689668 21.79120665 -12.12751451 19.49066732 -12.0625 16.5 C-11.0725 16.17 -10.0825 15.84 -9.0625 15.5 C-9.7225 14.51 -10.3825 13.52 -11.0625 12.5 C-11.73449004 5.44410453 -11.73449004 5.44410453 -9.48046875 2.27734375 C-6.21842829 -0.12044043 -4.01465291 -0.03377205 0 0 Z M-8.0625 16.5 C-7.34686734 18.5162233 -7.34686734 18.5162233 -6.0625 20.5 C-4.01249129 21.30528889 -4.01249129 21.30528889 -2.0625 21.5 C-2.3925 20.51 -2.7225 19.52 -3.0625 18.5 C-5.56697516 17.28130071 -5.56697516 17.28130071 -8.0625 16.5 Z " fill="#000000" transform="translate(240.0625,29.5)"/>
<path d="M0 0 C0 5.28 0 10.56 0 16 C-3.96 16 -7.92 16 -12 16 C-12 11.71 -12 7.42 -12 3 C-7.36785457 0.35305975 -5.65031797 0 0 0 Z " fill="#101010" transform="translate(46,55)"/>
<path d="M0 0 C2.875 0.9375 2.875 0.9375 4.875 3.9375 C4.30896226 10.50353774 4.30896226 10.50353774 2.875 11.9375 C-3.37021739 12.4001087 -3.37021739 12.4001087 -6.0625 10.75 C-7.53859492 8.23195572 -7.61589348 6.81273324 -7.125 3.9375 C-4.89669932 0.68075285 -3.99826107 -0.07996522 0 0 Z " fill="#FC0D0C" transform="translate(74.125,11.0625)"/>
<path d="M0 0 C0.79921875 0.01804687 1.5984375 0.03609375 2.421875 0.0546875 C3.02515625 0.07789062 3.6284375 0.10109375 4.25 0.125 C4.58 1.775 4.91 3.425 5.25 5.125 C1.14888036 8.10763247 -1.72381517 8.5043347 -6.75 8.125 C-7.41 7.795 -8.07 7.465 -8.75 7.125 C-8.75 5.475 -8.75 3.825 -8.75 2.125 C-5.68753253 0.34090198 -3.52920727 -0.10380021 0 0 Z " fill="#000000" transform="translate(152.75,20.875)"/>
<path d="M0 0 C0.66 0.33 1.32 0.66 2 1 C2 1.66 2 2.32 2 3 C-2.455 4.485 -2.455 4.485 -7 6 C-7 5.01 -7 4.02 -7 3 C-4.69631264 1.93347808 -2.35981813 0.93578995 0 0 Z " fill="#E1D2D2" transform="translate(43,43)"/>
</svg>
